<?xml version="1.0" encoding="UTF-8" standalone="no"?>
<!DOCTYPE svg PUBLIC "-//W3C//DTD SVG 1.1//EN"
 "http://www.w3.org/Graphics/SVG/1.1/DTD/svg11.dtd">
<!-- Generated by graphviz version 2.36.0 (20140111.2315)
 -->
<!-- Title: SonarBuild Pages: 1 -->
<svg width="447pt" height="476pt"
 viewBox="0.00 0.00 447.00 476.00" xmlns="http://www.w3.org/2000/svg" xmlns:xlink="http://www.w3.org/1999/xlink">
<g id="graph0" class="graph" transform="scale(1 1) rotate(0) translate(4 472)">
<title>SonarBuild</title>
<polygon fill="white" stroke="none" points="-4,4 -4,-472 443,-472 443,4 -4,4"/>
<!-- *.java -->
<g id="node1" class="node"><title>*.java</title>
<ellipse fill="none" stroke="black" cx="142" cy="-450" rx="32.2457" ry="18"/>
<text text-anchor="middle" x="142" y="-446.3" font-family="Times,serif" font-size="14.00">*.java</text>
</g>
<!-- cobertura -->
<g id="node2" class="node"><title>cobertura</title>
<ellipse fill="none" stroke="black" cx="142" cy="-378" rx="44.271" ry="18"/>
<text text-anchor="middle" x="142" y="-374.3" font-family="Times,serif" font-size="14.00">cobertura</text>
</g>
<!-- *.java&#45;&gt;cobertura -->
<g id="edge1" class="edge"><title>*.java&#45;&gt;cobertura</title>
<path fill="none" stroke="black" d="M142,-431.697C142,-423.983 142,-414.712 142,-406.112"/>
<polygon fill="black" stroke="black" points="145.5,-406.104 142,-396.104 138.5,-406.104 145.5,-406.104"/>
</g>
<!-- cobertura.xml -->
<g id="node5" class="node"><title>cobertura.xml</title>
<ellipse fill="none" stroke="black" cx="134" cy="-306" rx="61.6163" ry="18"/>
<text text-anchor="middle" x="134" y="-302.3" font-family="Times,serif" font-size="14.00">cobertura.xml</text>
</g>
<!-- cobertura&#45;&gt;cobertura.xml -->
<g id="edge4" class="edge"><title>cobertura&#45;&gt;cobertura.xml</title>
<path fill="none" stroke="black" d="M140.022,-359.697C139.141,-351.983 138.081,-342.712 137.099,-334.112"/>
<polygon fill="black" stroke="black" points="140.568,-333.642 135.955,-324.104 133.613,-334.437 140.568,-333.642"/>
</g>
<!-- *.scala -->
<g id="node3" class="node"><title>*.scala</title>
<ellipse fill="none" stroke="black" cx="240" cy="-450" rx="35.6194" ry="18"/>
<text text-anchor="middle" x="240" y="-446.3" font-family="Times,serif" font-size="14.00">*.scala</text>
</g>
<!-- *.scala&#45;&gt;cobertura -->
<g id="edge2" class="edge"><title>*.scala&#45;&gt;cobertura</title>
<path fill="none" stroke="black" d="M220.168,-434.834C206.2,-424.857 187.259,-411.328 171.521,-400.086"/>
<polygon fill="black" stroke="black" points="173.331,-397.078 163.159,-394.114 169.262,-402.774 173.331,-397.078"/>
</g>
<!-- scoverage -->
<g id="node4" class="node"><title>scoverage</title>
<ellipse fill="none" stroke="black" cx="268" cy="-378" rx="46.1964" ry="18"/>
<text text-anchor="middle" x="268" y="-374.3" font-family="Times,serif" font-size="14.00">scoverage</text>
</g>
<!-- *.scala&#45;&gt;scoverage -->
<g id="edge3" class="edge"><title>*.scala&#45;&gt;scoverage</title>
<path fill="none" stroke="black" d="M246.778,-432.055C249.93,-424.176 253.753,-414.617 257.282,-405.794"/>
<polygon fill="black" stroke="black" points="260.626,-406.86 261.09,-396.275 254.126,-404.26 260.626,-406.86"/>
</g>
<!-- scoverage.xml -->
<g id="node6" class="node"><title>scoverage.xml</title>
<ellipse fill="none" stroke="black" cx="278" cy="-306" rx="63.5411" ry="18"/>
<text text-anchor="middle" x="278" y="-302.3" font-family="Times,serif" font-size="14.00">scoverage.xml</text>
</g>
<!-- scoverage&#45;&gt;scoverage.xml -->
<g id="edge9" class="edge"><title>scoverage&#45;&gt;scoverage.xml</title>
<path fill="none" stroke="black" d="M270.472,-359.697C271.574,-351.983 272.898,-342.712 274.127,-334.112"/>
<polygon fill="black" stroke="black" points="277.607,-334.499 275.557,-324.104 270.677,-333.509 277.607,-334.499"/>
</g>
<!-- xml&#45;transform&#45;maven&#45;plugin -->
<g id="node7" class="node"><title>xml&#45;transform&#45;maven&#45;plugin</title>
<ellipse fill="none" stroke="black" cx="134" cy="-234" rx="116.484" ry="18"/>
<text text-anchor="middle" x="134" y="-230.3" font-family="Times,serif" font-size="14.00">xml&#45;transform&#45;maven&#45;plugin</text>
</g>
<!-- cobertura.xml&#45;&gt;xml&#45;transform&#45;maven&#45;plugin -->
<g id="edge5" class="edge"><title>cobertura.xml&#45;&gt;xml&#45;transform&#45;maven&#45;plugin</title>
<path fill="none" stroke="black" d="M134,-287.697C134,-279.983 134,-270.712 134,-262.112"/>
<polygon fill="black" stroke="black" points="137.5,-262.104 134,-252.104 130.5,-262.104 137.5,-262.104"/>
</g>
<!-- Sonar Scoverage plugin -->
<g id="node11" class="node"><title>Sonar Scoverage plugin</title>
<ellipse fill="none" stroke="black" cx="342" cy="-162" rx="97.237" ry="18"/>
<text text-anchor="middle" x="342" y="-158.3" font-family="Times,serif" font-size="14.00">Sonar Scoverage plugin</text>
</g>
<!-- scoverage.xml&#45;&gt;Sonar Scoverage plugin -->
<g id="edge10" class="edge"><title>scoverage.xml&#45;&gt;Sonar Scoverage plugin</title>
<path fill="none" stroke="black" d="M285.72,-287.871C296.724,-263.457 317.019,-218.426 329.995,-189.635"/>
<polygon fill="black" stroke="black" points="333.335,-190.744 334.253,-180.189 326.953,-187.868 333.335,-190.744"/>
</g>
<!-- cobertura&#45;without&#45;scala.xml -->
<g id="node8" class="node"><title>cobertura&#45;without&#45;scala.xml</title>
<ellipse fill="none" stroke="black" cx="113" cy="-162" rx="113.61" ry="18"/>
<text text-anchor="middle" x="113" y="-158.3" font-family="Times,serif" font-size="14.00">cobertura&#45;without&#45;scala.xml</text>
</g>
<!-- xml&#45;transform&#45;maven&#45;plugin&#45;&gt;cobertura&#45;without&#45;scala.xml -->
<g id="edge6" class="edge"><title>xml&#45;transform&#45;maven&#45;plugin&#45;&gt;cobertura&#45;without&#45;scala.xml</title>
<path fill="none" stroke="black" d="M128.809,-215.697C126.469,-207.898 123.653,-198.509 121.049,-189.829"/>
<polygon fill="black" stroke="black" points="124.357,-188.677 118.131,-180.104 117.652,-190.688 124.357,-188.677"/>
</g>
<!-- Sonar Cobertura Plugin -->
<g id="node9" class="node"><title>Sonar Cobertura Plugin</title>
<ellipse fill="none" stroke="black" cx="165" cy="-90" rx="96.2631" ry="18"/>
<text text-anchor="middle" x="165" y="-86.3" font-family="Times,serif" font-size="14.00">Sonar Cobertura Plugin</text>
</g>
<!-- cobertura&#45;without&#45;scala.xml&#45;&gt;Sonar Cobertura Plugin -->
<g id="edge7" class="edge"><title>cobertura&#45;without&#45;scala.xml&#45;&gt;Sonar Cobertura Plugin</title>
<path fill="none" stroke="black" d="M125.588,-144.055C131.755,-135.753 139.309,-125.584 146.148,-116.378"/>
<polygon fill="black" stroke="black" points="149.013,-118.39 152.167,-108.275 143.394,-114.216 149.013,-118.39"/>
</g>
<!-- SonarQube -->
<g id="node10" class="node"><title>SonarQube</title>
<ellipse fill="none" stroke="black" cx="240" cy="-18" rx="51.0191" ry="18"/>
<text text-anchor="middle" x="240" y="-14.3" font-family="Times,serif" font-size="14.00">SonarQube</text>
</g>
<!-- Sonar Cobertura Plugin&#45;&gt;SonarQube -->
<g id="edge8" class="edge"><title>Sonar Cobertura Plugin&#45;&gt;SonarQube</title>
<path fill="none" stroke="black" d="M183.155,-72.055C192.853,-63.0034 204.929,-51.7333 215.452,-41.9113"/>
<polygon fill="black" stroke="black" points="217.862,-44.4496 222.785,-35.0676 213.086,-39.3322 217.862,-44.4496"/>
</g>
<!-- Sonar Scoverage plugin&#45;&gt;SonarQube -->
<g id="edge11" class="edge"><title>Sonar Scoverage plugin&#45;&gt;SonarQube</title>
<path fill="none" stroke="black" d="M329.696,-143.871C311.833,-119.003 278.606,-72.7456 257.992,-44.0477"/>
<polygon fill="black" stroke="black" points="260.707,-41.8283 252.03,-35.7483 255.022,-45.9121 260.707,-41.8283"/>
</g>
</g>
</svg>
